# Blender v2.82 (sub 7) OBJ File: 'Mech.blend'
# www.blender.org
mtllib Plaquedepression.mtl
o Plane.007
v 23.787472 2.192845 24.288208
v 28.818050 2.192845 24.288208
v 23.787472 2.192845 19.257629
v 28.818050 2.192845 19.257629
v 24.103975 2.438602 19.574133
v 24.103975 2.438602 23.971704
v 28.501547 2.438602 23.971704
v 28.501547 2.438602 19.574133
v 24.103975 2.445819 19.574133
v 24.103975 2.445819 23.971704
v 28.501547 2.445819 23.971704
v 28.501547 2.445819 19.574133
v 23.890678 2.438602 19.360836
v 23.787472 2.335396 19.257629
v 23.787472 2.335396 24.288208
v 23.890678 2.438602 24.185001
v 28.818050 2.335396 24.288208
v 28.714844 2.438602 24.185001
v 28.818050 2.335396 19.257629
v 28.714844 2.438602 19.360836
vt 0.640121 0.452738
vt 0.640121 0.885979
vt 0.639378 0.885979
vt 0.639378 0.452738
vt 0.638612 0.885979
vt 0.638612 0.452738
vt 0.639355 0.452738
vt 0.639355 0.885979
vt 0.638590 0.885979
vt 0.637847 0.885979
vt 0.637846 0.452738
vt 0.640886 0.452738
vt 0.640886 0.885979
vt 0.640143 0.885979
vt 0.640143 0.452738
vt 0.525800 0.503039
vt 0.007771 0.503039
vt 0.007770 0.007434
vt 0.525800 0.007434
vt 0.637456 0.453673
vt 0.637456 0.949278
vt 0.622776 0.949278
vt 0.622776 0.453673
vt 0.482261 0.538615
vt 0.029416 0.538616
vt 0.007452 0.517602
vt 0.504225 0.517602
vt 0.482261 0.971857
vt 0.504225 0.992871
vt 0.611389 0.453673
vt 0.611389 0.949278
vt 0.596710 0.949278
vt 0.596710 0.453673
vt 0.560016 0.949278
vt 0.560016 0.453673
vt 0.574695 0.453673
vt 0.574695 0.949278
vt 0.559257 0.453673
vt 0.559257 0.949278
vt 0.544578 0.949278
vt 0.544577 0.453673
vt 0.029416 0.971857
vt 0.007452 0.992871
vt 0.612149 0.939110
vt 0.612149 0.463841
vt 0.585323 0.463841
vt 0.585323 0.939110
vt 0.533950 0.939110
vt 0.533950 0.463841
vt 0.586082 0.939110
vt 0.586082 0.463841
vn 0.0000 0.0000 -1.0000
vn 0.0000 0.0000 1.0000
vn 1.0000 0.0000 0.0000
vn -1.0000 0.0000 0.0000
vn 0.0000 -1.0000 0.0000
vn 0.0000 1.0000 0.0000
vn -0.7071 0.7071 0.0000
vn 0.0000 0.7071 0.7071
vn 0.7071 0.7071 0.0000
vn 0.0000 0.7071 -0.7071
usemtl base
s off
f 8/1/1 5/2/1 9/3/1 12/4/1
f 6/5/2 7/6/2 11/7/2 10/8/2
f 7/6/3 8/9/3 12/10/3 11/11/3
f 5/12/4 6/13/4 10/14/4 9/15/4
usemtl Plaque
f 1/16/5 3/17/5 4/18/5 2/19/5
f 3/20/4 1/21/4 15/22/4 14/23/4
f 8/24/6 7/25/6 18/26/6 20/27/6
f 5/28/6 8/24/6 20/27/6 13/29/6
f 4/30/1 3/31/1 14/32/1 19/33/1
f 1/34/2 2/35/2 17/36/2 15/37/2
f 2/38/3 4/39/3 19/40/3 17/41/3
f 7/25/6 6/42/6 16/43/6 18/26/6
f 14/23/7 15/22/7 16/44/7 13/45/7
f 15/37/8 17/36/8 18/46/8 16/47/8
f 17/41/9 19/40/9 20/48/9 18/49/9
f 19/33/10 14/32/10 13/50/10 20/51/10
f 6/42/6 5/28/6 13/29/6 16/43/6
o Plane.011
v 24.247601 2.589444 19.717758
v 24.103975 2.445819 19.574133
v 24.103975 2.445819 23.971704
v 24.247601 2.589444 23.828079
v 28.501547 2.445819 23.971704
v 28.357922 2.589444 23.828079
v 28.501547 2.445819 19.574133
v 28.357922 2.589444 19.717758
vt 0.555153 0.425591
vt 0.555153 0.020648
vt 0.978417 0.020648
vt 0.978417 0.425591
vt 0.993207 0.439740
vt 0.540363 0.439740
vt 0.540363 0.006499
vt 0.993207 0.006499
vn 0.0000 1.0000 0.0000
vn -0.7071 0.7071 0.0000
vn 0.0000 0.7071 0.7071
vn 0.7071 0.7071 0.0000
vn 0.0000 0.7071 -0.7071
usemtl base
s off
f 24/52/11 26/53/11 28/54/11 21/55/11
f 22/56/12 23/57/12 24/52/12 21/55/12
f 23/57/13 25/58/13 26/53/13 24/52/13
f 25/58/14 27/59/14 28/54/14 26/53/14
f 27/59/15 22/56/15 21/55/15 28/54/15
