# Blender v2.82 (sub 7) OBJ File: 'Mech.blend'
# www.blender.org
mtllib Murtroue.mtl
o Plane.7012_Plane.012
v 35.283989 1.145092 41.379086
v 55.229935 1.145092 41.379086
v 35.283989 1.145092 42.505157
v 55.229935 1.145092 42.505157
v 52.334747 5.008078 42.505157
v 52.569881 4.720423 42.505157
v 52.334747 5.008078 41.379086
v 52.957207 4.246583 41.379086
v 53.421692 3.678349 42.505157
v 53.421692 3.678349 41.379086
v 53.421692 1.416557 42.505157
v 53.421692 3.189065 42.505157
v 53.421692 1.416557 41.379086
v 53.421692 2.383095 41.379086
v 53.319481 1.201600 42.505157
v 53.292606 1.145092 42.505157
v 53.292610 1.145092 42.325455
v 53.292606 1.145092 41.379086
v 50.525093 7.211242 42.505157
v 51.347958 6.209445 41.379086
v 50.025555 7.819407 42.505157
v 50.025555 7.819407 41.379086
v 48.956802 7.819407 42.505157
v 49.442772 7.819407 41.379086
v 48.661781 7.819407 42.505157
v 48.661781 7.819407 41.379086
v 47.602974 8.734088 42.505157
v 47.832024 8.536219 42.505157
v 48.209320 8.210279 41.379086
v 47.602974 8.734089 41.379086
v 47.076015 8.734088 42.505157
v 46.207989 8.734089 41.379086
v 45.167042 8.734088 42.505157
v 45.167042 8.734089 41.379086
v 42.731098 8.734088 42.505157
v 43.258057 8.734088 42.505157
v 42.731098 8.734089 41.379086
v 44.126087 8.734089 41.379086
v 41.672306 7.819407 42.505157
v 41.377285 7.819407 42.505157
v 41.672306 7.819407 41.379086
v 40.891312 7.819407 41.379086
v 40.308533 7.819407 42.505157
v 40.308533 7.819407 41.379086
v 42.502052 8.536219 42.505157
v 42.124760 8.210279 41.379086
v 39.808990 7.211242 42.505157
v 38.986122 6.209445 41.379086
v 37.999329 5.008078 42.505157
v 37.999329 5.008078 41.379086
v 36.912384 3.678349 42.505157
v 37.764194 4.720423 42.505157
v 36.912384 3.678349 41.379086
v 37.376869 4.246583 41.379086
v 36.912384 1.416557 42.505157
v 36.912384 3.189065 42.505157
v 36.912384 1.416557 41.379086
v 36.912384 2.383095 41.379086
v 37.014599 1.201600 42.505157
v 37.041466 1.145092 41.379086
v 37.041466 1.145092 42.325455
v 37.041466 1.145092 42.505157
v 35.283989 10.670505 42.505157
v 35.283989 10.670506 41.379086
v 55.229935 10.670506 42.505157
v 55.229935 10.670506 41.379086
vt 0.000000 0.000000
vt 0.000000 0.477561
vt 1.000000 0.477561
vt 1.000000 0.000000
vt 0.902871 0.000000
vt 0.909343 0.013610
vt 0.909343 0.062068
vt 0.909343 0.127006
vt 0.886056 0.155495
vt 0.854848 0.193673
vt 0.805375 0.253904
vt 0.739076 0.334620
vt 0.709858 0.334620
vt 0.670703 0.334620
vt 0.648018 0.354217
vt 0.617619 0.380478
vt 0.547680 0.380478
vt 0.495492 0.380478
vt 0.443303 0.380478
vt 0.373365 0.380478
vt 0.342965 0.354217
vt 0.320282 0.334620
vt 0.281126 0.334620
vt 0.251908 0.334620
vt 0.185609 0.253904
vt 0.136135 0.193673
vt 0.104928 0.155495
vt 0.081640 0.127006
vt 0.081640 0.062068
vt 0.081641 0.013610
vt 0.088112 0.000000
vt 0.000000 0.000000
vt 0.088112 0.000000
vt 0.086764 0.002833
vt 0.081640 0.013610
vt 0.081641 0.102476
vt 0.081640 0.127006
vt 0.124347 0.179251
vt 0.136135 0.193673
vt 0.226863 0.304129
vt 0.251908 0.334620
vt 0.305490 0.334620
vt 0.320282 0.334620
vt 0.361881 0.370558
vt 0.373364 0.380478
vt 0.399784 0.380478
vt 0.495492 0.380478
vt 0.591200 0.380478
vt 0.617619 0.380478
vt 0.629102 0.370558
vt 0.670703 0.334620
vt 0.685494 0.334620
vt 0.739076 0.334620
vt 0.764120 0.304129
vt 0.854849 0.193673
vt 0.866636 0.179251
vt 0.909343 0.127006
vt 0.909343 0.102476
vt 0.909342 0.013610
vt 0.904217 0.002833
vt 0.902871 0.000000
vt 1.000000 0.000000
vt 1.000000 0.477561
vt 0.000000 0.477561
vt 0.088111 0.000000
vt 0.902872 0.000000
vt 0.057022 0.559819
vt 0.057022 0.510885
vt 0.923772 0.510886
vt 0.923772 0.559818
vt 0.472256 0.572866
vt 0.543432 0.553107
vt 0.386900 0.553107
vt 0.386900 0.572866
vt 0.601638 0.944957
vt 0.689285 0.922366
vt 0.496530 0.922366
vt 0.496530 0.944957
vt 0.367917 0.553107
vt 0.362927 0.556260
vt 0.362927 0.572866
vt 0.402925 0.360312
vt 0.394286 0.355382
vt 0.394286 0.360312
vt 0.064797 0.944957
vt 0.113867 0.922366
vt 0.005952 0.922366
vt 0.005952 0.944957
vt 0.303775 0.922366
vt 0.391422 0.944957
vt 0.879192 0.922366
vt 0.928262 0.944957
vt 0.987108 0.944957
vt 0.987108 0.922366
vt 0.485934 0.673748
vt 0.547591 0.696290
vt 0.585022 0.696290
vt 0.585022 0.673748
vt 0.250566 0.922366
vt 0.250566 0.944957
vt 0.311154 0.673748
vt 0.373901 0.696290
vt 0.411993 0.696290
vt 0.411993 0.673748
vt 0.435787 0.360312
vt 0.435787 0.329422
vt 0.394286 0.329422
vt 0.810164 0.572866
vt 0.898633 0.553107
vt 0.704070 0.553107
vt 0.704070 0.572866
vt 0.872268 0.696290
vt 0.741655 0.673748
vt 0.586641 0.572866
vt 0.586641 0.553107
vt 0.362927 0.553107
vt 0.849403 0.922366
vt 0.849403 0.944957
vt 0.742494 0.944957
vt 0.742494 0.922366
vt 0.952341 0.572866
vt 0.952341 0.553107
vt 0.227439 0.922366
vt 0.189342 0.944957
vt 0.765621 0.922366
vt 0.803717 0.944957
vt 0.143656 0.944957
vt 0.143656 0.922366
vt 0.951560 0.696290
vt 0.951560 0.673748
vt 0.235907 0.673748
vt 0.235907 0.696290
vt 0.636822 0.572866
vt 0.678667 0.553107
vn -0.0000 0.0000 -1.0000
vn -0.0000 0.0000 1.0000
vn 0.0000 -1.0000 0.0000
vn 1.0000 0.0000 0.0000
vn -1.0000 0.0000 0.0000
vn -0.0000 1.0000 0.0000
vn 0.7071 0.0000 -0.7071
vn 0.7071 0.0000 0.7071
vn 0.7322 0.1652 0.6607
vn 0.7322 0.1652 -0.6608
vn 0.0000 -0.7071 -0.7071
vn 0.0000 -0.7071 0.7071
vn 0.6386 0.3036 0.7071
vn 0.8454 -0.5341 0.0000
vn 0.7018 -0.4434 -0.5575
vn -0.6386 0.3037 0.7071
vn -0.8454 -0.5341 0.0000
vn -0.7018 -0.4433 0.5575
vn 0.3345 -0.7076 0.6224
vn 0.3345 -0.7076 -0.6224
vn -0.3345 -0.7076 -0.6224
vn -0.3345 -0.7076 0.6224
vn -0.5475 -0.4475 -0.7071
vn -0.5475 -0.4475 0.7071
vn -0.5471 -0.4483 0.7068
vn -0.5471 -0.4483 -0.7068
vn 0.2690 -0.7229 0.6364
vn 0.2690 -0.7229 -0.6364
vn -0.7071 0.0000 -0.7071
vn -0.7071 0.0000 0.7071
vn -0.7247 -0.2585 0.6387
vn -0.7247 -0.2585 -0.6387
vn -0.7322 0.1652 0.6608
vn -0.7322 0.1652 -0.6607
vn -0.7018 -0.4434 -0.5575
vn 0.5464 -0.4488 -0.7071
vn 0.5464 -0.4488 0.7071
vn 0.5471 -0.4483 0.7068
vn 0.5471 -0.4483 -0.7068
vn -0.5464 -0.4488 0.7071
vn -0.5464 -0.4488 -0.7071
vn 0.7247 -0.2585 -0.6387
vn 0.7247 -0.2585 0.6387
vn 0.7018 -0.4434 0.5575
vn -0.2690 -0.7229 0.6364
vn -0.2690 -0.7229 -0.6364
vn 0.4622 -0.5351 0.7071
vn 0.4622 -0.5351 -0.7071
vn -0.4622 -0.5351 0.7071
vn -0.4622 -0.5351 -0.7071
vn 0.5475 -0.4475 -0.7071
vn 0.5475 -0.4475 0.7070
usemtl None
s off
f 1/1/1 64/2/1 66/3/1 2/4/1 18/5/1 13/6/1 14/7/1 10/8/1 8/9/1 7/10/1 20/11/1 22/12/1 24/13/1 26/14/1 29/15/1 30/16/1 32/17/1 34/18/1 38/19/1 37/20/1 46/21/1 41/22/1 42/23/1 44/24/1 48/25/1 50/26/1 54/27/1 53/28/1 58/29/1 57/30/1 60/31/1
f 3/32/2 62/33/2 59/34/2 55/35/2 56/36/2 51/37/2 52/38/2 49/39/2 47/40/2 43/41/2 40/42/2 39/43/2 45/44/2 35/45/2 36/46/2 33/47/2 31/48/2 27/49/2 28/50/2 25/51/2 23/52/2 21/53/2 19/54/2 5/55/2 6/56/2 9/57/2 12/58/2 11/59/2 15/60/2 16/61/2 4/62/2 65/63/2 63/64/2
f 1/1/3 60/31/3 61/65/3 62/33/3 3/32/3
f 16/61/3 17/66/3 18/5/3 2/4/3 4/62/3
f 2/4/4 66/3/4 65/63/4 4/62/4
f 63/64/5 64/2/5 1/1/5 3/32/5
f 64/67/6 63/68/6 65/69/6 66/70/6
s 1
f 58/71/7 56/72/8 55/73/9 57/74/10
f 32/75/11 31/76/12 33/77/12 34/78/11
f 59/79/13 61/80/14 60/81/15 57/74/10 55/73/9
f 15/82/16 17/83/17 16/84/18
f 42/85/11 40/86/12 43/87/19 44/88/20
f 36/89/12 38/90/11 34/78/11 33/77/12
f 23/91/12 24/92/11 22/93/21 21/94/22
f 8/95/23 6/96/24 5/97/25 7/98/26
f 38/90/11 36/89/12 35/99/27 37/100/28
f 14/101/29 12/102/30 9/103/31 10/104/32
f 17/83/17 15/82/16 11/105/33 13/106/34 18/107/35
f 48/108/36 47/109/37 49/110/38 50/111/39
f 19/112/40 20/113/41 7/98/26 5/97/25
f 56/72/8 58/71/7 53/114/42 51/115/43
f 61/80/14 59/79/13 62/116/44
f 6/96/24 8/95/23 10/104/32 9/103/31
f 24/92/11 23/91/12 25/117/45 26/118/46
f 31/76/12 32/75/11 30/119/46 27/120/45
f 47/109/37 48/108/36 44/121/20 43/122/19
f 45/123/47 46/124/48 37/100/28 35/99/27
f 28/125/49 29/126/50 26/118/46 25/117/45
f 40/86/12 42/85/11 41/127/28 39/128/27
f 20/113/41 19/112/40 21/129/22 22/130/21
f 12/102/30 14/101/29 13/131/34 11/132/33
f 29/126/50 28/125/49 27/120/45 30/119/46
f 54/133/51 52/134/52 51/115/43 53/114/42
f 52/134/52 54/133/51 50/111/39 49/110/38
f 46/124/48 45/123/47 39/128/27 41/127/28
